<?xml version="1.0" encoding="UTF-8"?>
<svg version="1.1" xmlns="http://www.w3.org/2000/svg" width="610" height="610">
<path d="M0 0 C0.94456055 0.16628906 1.88912109 0.33257813 2.86230469 0.50390625 C50.4914101 8.95044711 95.50194726 29.42616506 133 60 C133.51449707 60.4129834 134.02899414 60.8259668 134.55908203 61.25146484 C142.77298381 67.87719532 150.32866264 75.12786389 157.8125 82.5625 C159.11960937 83.85571167 159.11960937 83.85571167 160.453125 85.17504883 C166.38939018 91.14011438 171.79210247 97.39243647 177 104 C177.80908813 105.02009155 177.80908813 105.02009155 178.63452148 106.06079102 C208.46249628 144.08906922 227.52085762 188.5406876 236 236 C236.2477417 237.29574951 236.2477417 237.29574951 236.50048828 238.61767578 C241.99951422 268.22825289 241.62959453 302.4446287 236 332 C235.83371094 332.94456055 235.66742187 333.88912109 235.49609375 334.86230469 C227.04955289 382.4914101 206.57383494 427.50194726 176 465 C175.5870166 465.51449707 175.1740332 466.02899414 174.74853516 466.55908203 C168.12280468 474.77298381 160.87213611 482.32866264 153.4375 489.8125 C152.57535889 490.68390625 151.71321777 491.5553125 150.82495117 492.453125 C144.85988562 498.38939018 138.60756353 503.79210247 132 509 C131.31993896 509.53939209 130.63987793 510.07878418 129.93920898 510.63452148 C91.91093078 540.46249628 47.4593124 559.52085762 0 568 C-1.29574951 568.2477417 -1.29574951 568.2477417 -2.61767578 568.50048828 C-32.22825289 573.99951422 -66.4446287 573.62959453 -96 568 C-97.41684082 567.75056641 -97.41684082 567.75056641 -98.86230469 567.49609375 C-146.4914101 559.04955289 -191.50194726 538.57383494 -229 508 C-229.51449707 507.5870166 -230.02899414 507.1740332 -230.55908203 506.74853516 C-238.77298381 500.12280468 -246.32866264 492.87213611 -253.8125 485.4375 C-254.68390625 484.57535889 -255.5553125 483.71321777 -256.453125 482.82495117 C-262.38939018 476.85988562 -267.79210247 470.60756353 -273 464 C-273.80908813 462.97990845 -273.80908813 462.97990845 -274.63452148 461.93920898 C-304.46249628 423.91093078 -323.52085762 379.4593124 -332 332 C-332.2477417 330.70425049 -332.2477417 330.70425049 -332.50048828 329.38232422 C-337.99951422 299.77174711 -337.62959453 265.5553713 -332 236 C-331.83371094 235.05543945 -331.66742188 234.11087891 -331.49609375 233.13769531 C-323.04955289 185.5085899 -302.57383494 140.49805274 -272 103 C-271.5870166 102.48550293 -271.1740332 101.97100586 -270.74853516 101.44091797 C-264.12280468 93.22701619 -256.87213611 85.67133736 -249.4375 78.1875 C-248.57535889 77.31609375 -247.71321777 76.4446875 -246.82495117 75.546875 C-240.85988562 69.61060982 -234.60756353 64.20789753 -228 59 C-227.31993896 58.46060791 -226.63987793 57.92121582 -225.93920898 57.36547852 C-187.91093078 27.53750372 -143.4593124 8.47914238 -96 0 C-94.70425049 -0.2477417 -94.70425049 -0.2477417 -93.38232422 -0.50048828 C-63.77174711 -5.99951422 -29.5553713 -5.62959453 0 0 Z " fill="#FEFEFE" transform="translate(354,22)"/>
<path d="M0 0 C0.94456055 0.16628906 1.88912109 0.33257813 2.86230469 0.50390625 C50.4914101 8.95044711 95.50194726 29.42616506 133 60 C133.51449707 60.4129834 134.02899414 60.8259668 134.55908203 61.25146484 C142.77298381 67.87719532 150.32866264 75.12786389 157.8125 82.5625 C159.11960937 83.85571167 159.11960937 83.85571167 160.453125 85.17504883 C166.38939018 91.14011438 171.79210247 97.39243647 177 104 C177.80908813 105.02009155 177.80908813 105.02009155 178.63452148 106.06079102 C208.46249628 144.08906922 227.52085762 188.5406876 236 236 C236.2477417 237.29574951 236.2477417 237.29574951 236.50048828 238.61767578 C241.99951422 268.22825289 241.62959453 302.4446287 236 332 C235.83371094 332.94456055 235.66742187 333.88912109 235.49609375 334.86230469 C227.04955289 382.4914101 206.57383494 427.50194726 176 465 C175.5870166 465.51449707 175.1740332 466.02899414 174.74853516 466.55908203 C168.12280468 474.77298381 160.87213611 482.32866264 153.4375 489.8125 C152.57535889 490.68390625 151.71321777 491.5553125 150.82495117 492.453125 C144.85988562 498.38939018 138.60756353 503.79210247 132 509 C131.31993896 509.53939209 130.63987793 510.07878418 129.93920898 510.63452148 C91.91093078 540.46249628 47.4593124 559.52085762 0 568 C-1.29574951 568.2477417 -1.29574951 568.2477417 -2.61767578 568.50048828 C-32.22825289 573.99951422 -66.4446287 573.62959453 -96 568 C-97.41684082 567.75056641 -97.41684082 567.75056641 -98.86230469 567.49609375 C-146.4914101 559.04955289 -191.50194726 538.57383494 -229 508 C-229.51449707 507.5870166 -230.02899414 507.1740332 -230.55908203 506.74853516 C-238.77298381 500.12280468 -246.32866264 492.87213611 -253.8125 485.4375 C-254.68390625 484.57535889 -255.5553125 483.71321777 -256.453125 482.82495117 C-262.38939018 476.85988562 -267.79210247 470.60756353 -273 464 C-273.80908813 462.97990845 -273.80908813 462.97990845 -274.63452148 461.93920898 C-304.46249628 423.91093078 -323.52085762 379.4593124 -332 332 C-332.2477417 330.70425049 -332.2477417 330.70425049 -332.50048828 329.38232422 C-337.99951422 299.77174711 -337.62959453 265.5553713 -332 236 C-331.83371094 235.05543945 -331.66742188 234.11087891 -331.49609375 233.13769531 C-323.04955289 185.5085899 -302.57383494 140.49805274 -272 103 C-271.5870166 102.48550293 -271.1740332 101.97100586 -270.74853516 101.44091797 C-264.12280468 93.22701619 -256.87213611 85.67133736 -249.4375 78.1875 C-248.57535889 77.31609375 -247.71321777 76.4446875 -246.82495117 75.546875 C-240.85988562 69.61060982 -234.60756353 64.20789753 -228 59 C-227.31993896 58.46060791 -226.63987793 57.92121582 -225.93920898 57.36547852 C-187.91093078 27.53750372 -143.4593124 8.47914238 -96 0 C-94.70425049 -0.2477417 -94.70425049 -0.2477417 -93.38232422 -0.50048828 C-63.77174711 -5.99951422 -29.5553713 -5.62959453 0 0 Z M-257.0078125 88.06640625 C-263.85216763 95.30286091 -270.00395786 103.05789153 -276 111 C-276.76981201 112.00909424 -276.76981201 112.00909424 -277.55517578 113.03857422 C-321.80029929 171.30968455 -341.78703414 246.80118422 -332.34057617 319.33105469 C-331.92422391 322.22656348 -331.47378636 325.11337489 -331 328 C-330.79117187 329.29695801 -330.79117187 329.29695801 -330.578125 330.62011719 C-322.59693787 378.45181507 -302.58171049 424.36396558 -272 462 C-271.28481201 462.88075195 -271.28481201 462.88075195 -270.55517578 463.77929688 C-267.44236333 467.58396648 -264.25229722 471.31406315 -261 475 C-260.53271484 475.53044922 -260.06542969 476.06089844 -259.58398438 476.60742188 C-247.89058209 489.78821227 -235.08230446 501.42656342 -221 512 C-220.3301709 512.51030762 -219.6603418 513.02061523 -218.97021484 513.54638672 C-160.46766223 557.97374658 -84.36626459 578.08304151 -11.5625 568.25 C-0.92431867 566.67564509 9.58117621 564.65743279 20 562 C21.19109375 561.71640625 22.3821875 561.4328125 23.609375 561.140625 C85.47849371 545.74088803 141.66788526 507.77312766 180 457 C180.76981201 455.99090576 180.76981201 455.99090576 181.55517578 454.96142578 C203.14746162 426.52424738 218.07569329 394.21444233 228 360 C228.20463867 359.31542725 228.40927734 358.63085449 228.62011719 357.92553711 C250.01548667 285.0840292 236.2108911 208.22566961 200.97265625 142.3515625 C197.08417137 135.24454707 192.75583423 128.55236437 188 122 C187.53094238 121.3498291 187.06188477 120.6996582 186.57861328 120.02978516 C179.79111509 110.67319765 172.65351976 101.66218553 165 93 C164.29689697 92.20215088 164.29689697 92.20215088 163.57958984 91.38818359 C151.88783716 78.20874935 139.08059889 66.57215599 125 56 C124.3301709 55.48969238 123.6603418 54.97938477 122.97021484 54.45361328 C41.11601708 -7.70719402 -73.87694699 -19.96574031 -257.0078125 88.06640625 Z " fill="#313131" transform="translate(354,22)"/>
<path d="M0 0 C4.28251128 3.67489713 7.66332789 7.82628304 10.86328125 12.45703125 C8.30587365 13.73573505 7.26824197 13.30863491 4.48828125 12.75 C3.59423584 12.57629883 2.70019043 12.40259766 1.77905273 12.22363281 C0.81684814 12.0325293 -0.14535645 11.84142578 -1.13671875 11.64453125 C-15.2209187 8.97364747 -29.74094349 6.4096229 -44.13671875 7.45703125 C-45.9042541 9.2245666 -45.30757936 11.77261931 -45.34204102 14.17016602 C-45.36198624 15.39135635 -45.38193146 16.61254669 -45.40248108 17.8707428 C-45.41946666 19.21330638 -45.43634542 20.55587132 -45.453125 21.8984375 C-45.47368822 23.26464986 -45.49468452 24.63085576 -45.51609802 25.99705505 C-45.5713841 29.59897649 -45.62076438 33.20095596 -45.66894531 36.80297852 C-45.71911278 40.47612697 -45.7748236 44.1491908 -45.83007812 47.82226562 C-45.93773957 55.03378257 -46.03916662 62.24536972 -46.13671875 69.45703125 C-48.11671875 69.45703125 -50.09671875 69.45703125 -52.13671875 69.45703125 C-52.14702621 68.69503922 -52.15733368 67.93304718 -52.16795349 67.14796448 C-52.26576285 59.98143385 -52.36825315 52.81499298 -52.47605801 45.6486063 C-52.5313204 41.96392935 -52.58474554 38.27924452 -52.6340332 34.59448242 C-52.68162807 31.04125284 -52.73396882 27.4881225 -52.7896595 23.93501091 C-52.81010525 22.57660314 -52.8288146 21.21816813 -52.84579277 19.8597126 C-52.86978752 17.9631342 -52.90042207 16.06664326 -52.93139648 14.17016602 C-52.95471291 12.54800926 -52.95471291 12.54800926 -52.97850037 10.89308167 C-52.86429894 8.50952074 -52.86429894 8.50952074 -54.13671875 7.45703125 C-72.03491849 5.70174157 -90.57914143 10.50394015 -108.13671875 13.45703125 C-101.61351601 0.67155388 -90.14363998 -6.4135454 -76.78686523 -10.82958984 C-51.20681583 -18.80484557 -21.88511965 -15.99821324 0 0 Z " fill="#4C6DA7" transform="translate(355.13671875,248.54296875)"/>
<path d="M0 0 C0.87833496 -0.0014502 1.75666992 -0.00290039 2.66162109 -0.00439453 C8.71664507 0.10276338 8.71664507 0.10276338 12.125 2.375 C12.66230289 8.66709969 11.56036894 14.58149934 10.375 20.75 C10.19670654 21.70229492 10.01841309 22.65458984 9.8347168 23.63574219 C5.14258389 48.33983222 5.14258389 48.33983222 3.125 52.375 C-11.52139789 49.54021331 -24.35477642 43.22238935 -33.875 31.375 C-37.59141511 25.16248519 -40.01870244 19.60274087 -40.125 12.3125 C-40.15078125 11.24902344 -40.1765625 10.18554688 -40.203125 9.08984375 C-40.09484375 8.19394531 -39.9865625 7.29804688 -39.875 6.375 C-29.77345412 -0.35936392 -11.85258601 0.00209743 0 0 Z " fill="#4D6EA8" transform="translate(282.875,263.625)"/>
<path d="M0 0 C0.83917969 0.00136963 1.67835938 0.00273926 2.54296875 0.00415039 C3.41179687 0.00358643 4.280625 0.00302246 5.17578125 0.00244141 C17.78056694 0.20520826 30.77893291 2.1849474 42.98046875 5.37915039 C43.7145896 17.61449796 42.25851392 25.31455174 34.48046875 35.00415039 C25.58668392 44.41327602 14.22998692 49.08303166 1.98046875 52.37915039 C1.32046875 52.37915039 0.66046875 52.37915039 -0.01953125 52.37915039 C-1.00089564 47.6657723 -1.97939394 42.95181135 -2.95532227 38.23730469 C-3.28723069 36.63590712 -3.61990101 35.03466726 -3.95336914 33.43359375 C-4.43449498 31.1228952 -4.91281406 28.81163014 -5.390625 26.50024414 C-5.53858017 25.79266464 -5.68653534 25.08508514 -5.838974 24.35606384 C-7.05156071 18.46775814 -8.15426577 12.59246822 -8.20703125 6.56665039 C-8.22121094 5.81770508 -8.23539062 5.06875977 -8.25 4.29711914 C-7.67656214 -0.47505017 -3.94691166 0.07325958 0 0 Z " fill="#4C6DA7" transform="translate(326.01953125,263.620849609375)"/>
<path d="M0 0 C6.6 0 13.2 0 20 0 C23.74503627 8.90768515 27.37628931 17.85465675 30.93139648 26.83959961 C31.52553465 28.33852675 32.12193977 29.83655705 32.72045898 31.33374023 C33.59592784 33.5239516 34.46472848 35.71670053 35.33203125 37.91015625 C35.60070511 38.57886246 35.86937897 39.24756866 36.14619446 39.9365387 C37.26678794 42.79033895 38 44.90278573 38 48 C32.06 48 26.12 48 20 48 C17.53397184 42.06326553 15.29269232 36.09289604 13.25 30 C13.02739502 29.3412085 12.80479004 28.68241699 12.57543945 28.00366211 C11 23.24767679 11 23.24767679 11 21 C10.34 21 9.68 21 9 21 C8.86078125 22.16595703 8.86078125 22.16595703 8.71875 23.35546875 C7.7661358 28.18584401 6.15285008 32.68252838 4.5 37.3125 C4.17902344 38.23095703 3.85804688 39.14941406 3.52734375 40.09570312 C1.13627679 46.86372321 1.13627679 46.86372321 0 48 C-1.34267413 48.08631874 -2.68974322 48.10706473 -4.03515625 48.09765625 C-4.84404297 48.09443359 -5.65292969 48.09121094 -6.48632812 48.08789062 C-7.33646484 48.07951172 -8.18660156 48.07113281 -9.0625 48.0625 C-9.91650391 48.05798828 -10.77050781 48.05347656 -11.65039062 48.04882812 C-13.76695663 48.03700373 -15.88348685 48.01906769 -18 48 C-16.0859888 42.15923849 -14.07474123 36.36666677 -11.93359375 30.60546875 C-11.65403336 29.8508284 -11.37447296 29.09618805 -11.08644104 28.31867981 C-10.50150424 26.74122331 -9.915799 25.16405155 -9.3293457 23.5871582 C-8.43358413 21.17696371 -7.54187573 18.76529468 -6.65039062 16.35351562 C-6.07836902 14.8124094 -5.50611177 13.27139062 -4.93359375 11.73046875 C-4.66896835 11.01376511 -4.40434296 10.29706146 -4.13169861 9.55863953 C-2.90027608 6.25740704 -1.57933125 3.1586625 0 0 Z " fill="#417AB4" transform="translate(168,326)"/>
<path d="M0 0 C6.6 0 13.2 0 20 0 C22.60416212 5.85936478 25.12475204 11.68381893 27.453125 17.6484375 C27.75820984 18.42764557 28.06329468 19.20685364 28.37762451 20.00967407 C29.01396697 21.63767368 29.64915052 23.26612673 30.28320312 24.89501953 C31.25651722 27.39171765 32.2375329 29.88530521 33.21875 32.37890625 C33.83901418 33.96856571 34.45882252 35.55840313 35.078125 37.1484375 C35.37180969 37.89217621 35.66549438 38.63591492 35.96807861 39.40219116 C37.13143219 42.41074181 38 44.74466411 38 48 C32.06 48 26.12 48 20 48 C19.36191406 46.21851563 18.72382813 44.43703125 18.06640625 42.6015625 C17.23183595 40.2760183 16.39719699 37.95049874 15.5625 35.625 C15.14162109 34.449375 14.72074219 33.27375 14.28710938 32.0625 C13.88427734 30.94101562 13.48144531 29.81953125 13.06640625 28.6640625 C12.69459229 27.62717285 12.32277832 26.5902832 11.93969727 25.52197266 C11.07047942 23.05197951 11.07047942 23.05197951 10 21 C7.03 29.91 4.06 38.82 1 48 C-4.94 48 -10.88 48 -17 48 C-15.875 40.125 -15.875 40.125 -14.41772461 36.44165039 C-14.09746811 35.62132828 -13.77721161 34.80100616 -13.44725037 33.95582581 C-13.10243118 33.09512985 -12.757612 32.2344339 -12.40234375 31.34765625 C-12.04862198 30.44752304 -11.69490021 29.54738983 -11.33045959 28.61997986 C-10.20653899 25.76463874 -9.07220107 22.9135718 -7.9375 20.0625 C-7.17053076 18.1194141 -6.4042473 16.17605736 -5.63867188 14.23242188 C-3.76829931 9.48455305 -1.88387781 4.7426146 0 0 Z " fill="#417AB3" transform="translate(261,326)"/>
<path d="M0 0 C15.18 0 30.36 0 46 0 C46 4.95 46 9.9 46 15 C41.71 15 37.42 15 33 15 C33 25.89 33 36.78 33 48 C26.73 48 20.46 48 14 48 C14 36.78 14 25.56 14 14 C9.38 14 4.76 14 0 14 C0 9.38 0 4.76 0 0 Z " fill="#437CB4" transform="translate(109,326)"/>
<path d="M0 0 C15.18 0 30.36 0 46 0 C46 4.62 46 9.24 46 14 C41.71 14 37.42 14 33 14 C33 25.22 33 36.44 33 48 C26.73 48 20.46 48 14 48 C14 36.78 14 25.56 14 14 C9.38 14 4.76 14 0 14 C0 9.38 0 4.76 0 0 Z " fill="#417AB3" transform="translate(202,326)"/>
<path d="M0 0 C9.24 0 18.48 0 28 0 C28 2.31 28 4.62 28 7 C21.4 7 14.8 7 8 7 C8 10.96 8 14.92 8 19 C13.94 19 19.88 19 26 19 C26 21.31 26 23.62 26 26 C20.06 26 14.12 26 8 26 C8 30.62 8 35.24 8 40 C14.93 40 21.86 40 29 40 C29 42.31 29 44.62 29 47 C19.43 47 9.86 47 0 47 C0 31.49 0 15.98 0 0 Z " fill="#3F79B3" transform="translate(394,327)"/>
<path d="M0 0 C8.91 0 17.82 0 27 0 C27 2.31 27 4.62 27 7 C20.73 7 14.46 7 8 7 C8 10.96 8 14.92 8 19 C13.94 19 19.88 19 26 19 C26 21.31 26 23.62 26 26 C20.06 26 14.12 26 8 26 C8 30.62 8 35.24 8 40 C14.6 40 21.2 40 28 40 C28 42.31 28 44.62 28 47 C18.76 47 9.52 47 0 47 C0 31.49 0 15.98 0 0 Z " fill="#417AB3" transform="translate(432,327)"/>
<path d="M0 0 C1.11246094 -0.00515625 2.22492188 -0.0103125 3.37109375 -0.015625 C6.509509 0.24558949 8.73085425 0.91621546 11.5625 2.25 C10.9025 4.56 10.2425 6.87 9.5625 9.25 C9.00820313 9.08886719 8.45390625 8.92773438 7.8828125 8.76171875 C5.34507692 8.20204979 3.03471447 8.0818822 0.4375 8.0625 C-0.43132812 8.04832031 -1.30015625 8.03414063 -2.1953125 8.01953125 C-4.64079726 8.03256395 -4.64079726 8.03256395 -6.4375 10.25 C-6.60431109 13.33347826 -6.60431109 13.33347826 -6.4375 16.25 C-5.40109375 16.78109375 -4.3646875 17.3121875 -3.296875 17.859375 C-1.92687873 18.57252374 -0.55709836 19.28608736 0.8125 20 C1.49441406 20.34804688 2.17632812 20.69609375 2.87890625 21.0546875 C7.7507932 23.60888066 11.73967962 25.78153886 13.5625 31.25 C14.10173825 36.96592544 13.19684458 39.80802329 9.5625 44.25 C4.92720169 48.32344397 0.57538404 48.43217289 -5.375 48.4375 C-6.09107422 48.44974609 -6.80714844 48.46199219 -7.54492188 48.47460938 C-11.33723108 48.48515333 -14.22349094 48.37309215 -17.4375 46.25 C-17.1075 43.94 -16.7775 41.63 -16.4375 39.25 C-15.38949219 39.48976563 -15.38949219 39.48976563 -14.3203125 39.734375 C-11.27431487 40.27918758 -8.40553994 40.45348812 -5.3125 40.5 C-4.27867187 40.52578125 -3.24484375 40.5515625 -2.1796875 40.578125 C0.57085486 40.47822917 0.57085486 40.47822917 2.40234375 38.890625 C3.74899712 37.23451245 3.74899712 37.23451245 4 34.75 C3.78789554 32.21273487 3.78789554 32.21273487 2.125 30.6875 C-0.16051462 29.40538204 -2.40336796 28.39471693 -4.8125 27.375 C-9.45413685 25.38353865 -14.090728 22.943544 -16.4375 18.25 C-17.0753991 14.28533598 -17.28757704 10.72309767 -15.23828125 7.171875 C-10.67680574 1.70270033 -7.20848994 -0.03333406 0 0 Z " fill="#3F79B3" transform="translate(338.4375,325.75)"/>
<path d="M0 0 C12.21 0 24.42 0 37 0 C37 2.31 37 4.62 37 7 C32.38 7 27.76 7 23 7 C23 20.2 23 33.4 23 47 C20.03 47 17.06 47 14 47 C14 33.8 14 20.6 14 7 C9.38 7 4.76 7 0 7 C0 4.69 0 2.38 0 0 Z " fill="#427BB4" transform="translate(352,327)"/>
<path d="M0 0 C2.97 0 5.94 0 9 0 C9 13.2 9 26.4 9 40 C15.27 40 21.54 40 28 40 C28 42.64 28 45.28 28 48 C18.76 48 9.52 48 0 48 C0 32.16 0 16.32 0 0 Z " fill="#5185BA" transform="translate(469,326)"/>
<path d="M0 0 C2.64 0 5.28 0 8 0 C8 13.2 8 26.4 8 40 C7.67 40 7.34 40 7 40 C7 27.13 7 14.26 7 1 C5.35 1 3.7 1 2 1 C2 15.52 2 30.04 2 45 C9.92 45 17.84 45 26 45 C26 43.68 26 42.36 26 41 C20.39 41 14.78 41 9 41 C9 40.67 9 40.34 9 40 C15.27 40 21.54 40 28 40 C28 42.31 28 44.62 28 47 C18.76 47 9.52 47 0 47 C0 31.49 0 15.98 0 0 Z " fill="#3572AF" transform="translate(469,327)"/>
<path d="M0 0 C8.91 0 17.82 0 27 0 C27 0.33 27 0.66 27 1 C18.42 1 9.84 1 1 1 C1 15.52 1 30.04 1 45 C9.25 45 17.5 45 26 45 C26 43.68 26 42.36 26 41 C20.06 41 14.12 41 8 41 C8 40.67 8 40.34 8 40 C14.6 40 21.2 40 28 40 C28 42.31 28 44.62 28 47 C18.76 47 9.52 47 0 47 C0 31.49 0 15.98 0 0 Z " fill="#2E6DAC" transform="translate(432,327)"/>
</svg>
